<svg width="18" height="18" viewBox="0 0 7 7" fill="none" xmlns="http://www.w3.org/2000/svg">
                        <path d="M5.09336 6L3.51836 4.425C3.39336 4.525 3.24961 4.60417 3.08711 4.6625C2.92461 4.72083 2.75169 4.75 2.56836 4.75C2.11419 4.75 1.72982 4.59271 1.41523 4.27813C1.10065 3.96354 0.943359 3.57917 0.943359 3.125C0.943359 2.67083 1.10065 2.28646 1.41523 1.97188C1.72982 1.65729 2.11419 1.5 2.56836 1.5C3.02253 1.5 3.4069 1.65729 3.72148 1.97188C4.03607 2.28646 4.19336 2.67083 4.19336 3.125C4.19336 3.30833 4.16419 3.48125 4.10586 3.64375C4.04753 3.80625 3.96836 3.95 3.86836 4.075L5.44336 5.65L5.09336 6ZM2.56836 4.25C2.88086 4.25 3.14648 4.14062 3.36523 3.92188C3.58398 3.70312 3.69336 3.4375 3.69336 3.125C3.69336 2.8125 3.58398 2.54688 3.36523 2.32812C3.14648 2.10938 2.88086 2 2.56836 2C2.25586 2 1.99023 2.10938 1.77148 2.32812C1.55273 2.54688 1.44336 2.8125 1.44336 3.125C1.44336 3.4375 1.55273 3.70312 1.77148 3.92188C1.99023 4.14062 2.25586 4.25 2.56836 4.25Z" fill="#1D1B20"/>
                    </svg>